{"title":"Axe.Giant.The.Wrath.of.Paul.Bunyan.2013.WEBDL.720p.Cinemania.cc.","uid":8910704,"size":3083741587,"categoryP":"video","categoryS":"hd___movies","magnet":"?xt=urn:btih:daf158a23bff95041aa4e794bc04e279b77a12f3&amp;dn=Axe.Giant.The.Wrath.of.Paul.Bunyan.2013.WEBDL.720p.Cinemania.cc.&amp;tr=udp%3A%2F%2Ftracker.openbittorrent.com%3A80&amp;tr=udp%3A%2F%2Fopen.demonii.com%3A1337&amp;tr=udp%3A%2F%2Ftracker.coppersurfer.tk%3A6969&amp;tr=udp%3A%2F%2Fexodus.desync.com%3A6969","seeders":1,"leechers":0,"uploader":"ABSTAIN","files":1,"time":1379013236,"description":"[img]http://cinemania.cc/torrents/images/6480.jpg[/img]\n &lt;a href=&quot;\nhttp://www.imdb.com/title/tt1684548/&quot; rel=&quot;nofollow&quot; target=&quot;_NEW&quot;&gt;\nhttp://www.imdb.com/title/tt1684548/&lt;/a&gt;\n\nGeneral \nAxe.Giant.The.Wrath.of.Paul.Bunyan.2013.WEBDL.720p.Cinemania.cc.mkv \nFormat : Matroska \nFormat version : Version 4 / Version 2 \nFile size : 2.87 GiB \nDuration : 1h 30mn \nOverall bit rate : 4 566 Kbps \nMovie name : CINEMANIA.CC \nEncoded date : UTC 2013-09-12 16:13:56 \nWriting application : mkvmerge v6.3.0 ('You can't stop me!') built on Jun 28 2013 20:09:41 \nWriting library : libebml v1.3.0 + libmatroska v1.4.0 \n\nVideo \nID : 1 \nFormat : AVC \nFormat/Info : Advanced Video Codec \nFormat profile : &lt;a class=&quot;__cf_email__&quot; href=&quot;/cdn-cgi/l/email-protection&quot; data-cfemail=&quot;bcf4d5dbd4fcf08f928d&quot;&gt;[email&amp;#160;protected]&lt;/a&gt;&lt;script cf-hash='f9e31' type=&quot;text/javascript&quot;&gt;\n/* &lt;![CDATA[ */!function(){try{var t=&quot;currentScript&quot;in document?document.currentScript:function(){for(var t=document.getElementsByTagName(&quot;script&quot;),e=t.length;e--;)if(t[e].getAttribute(&quot;cf-hash&quot;))return t[e]}();if(t&amp;&amp;t.previousSibling){var e,r,n,i,c=t.previousSibling,a=c.getAttribute(&quot;data-cfemail&quot;);if(a){for(e=&quot;&quot;,r=parseInt(a.substr(0,2),16),n=2;a.length-n;n+=2)i=parseInt(a.substr(n,2),16)^r,e+=String.fromCharCode(i);e=document.createTextNode(e),c.parentNode.replaceChild(e,c)}}}catch(u){}}();/* ]]&gt; */&lt;/script&gt; \nFormat settings, CABAC : No \nFormat settings, ReFrames : 2 frames \nCodec ID : V_MPEG4/ISO/AVC \nDuration : 1h 30mn \nBit rate : 3 899 Kbps \nWidth : 1 280 pixels \nHeight : 716 pixels \nDisplay aspect ratio : 16:9 \nFrame rate mode : Constant \nFrame rate : 23.976 fps \nColor space : YUV \nChroma subsampling : 4:2:0 \nBit depth : 8 bits \nScan type : Progressive \nBits/(Pixel*Frame) : 0.177 \nStream size : 2.45 GiB (85%) \nTitle : CINEMANIA.CC \nLanguage : English \nDefault : Yes \nForced : No \nColor primaries : BT.709 \nTransfer characteristics : BT.709 \nMatrix coefficients : BT.709 \n\nAudio #1 \nID : 2 \nFormat : AC-3 \nFormat/Info : Audio Coding 3 \nMode extension : CM (complete main) \nFormat settings, Endianness : Big \nCodec ID : A_AC3 \nDuration : 1h 30mn \nBit rate mode : Constant \nBit rate : 192 Kbps \nChannel(s) : 2 channels \nChannel positions : Front: L R \nSampling rate : 48.0 KHz \nBit depth : 16 bits \nCompression mode : Lossy \nStream size : 124 MiB (4%) \nTitle : den904 \nLanguage : Russian \nDefault : Yes \nForced : Yes \n\nAudio #2 \nID : 3 \nFormat : AC-3 \nFormat/Info : Audio Coding 3 \nMode extension : CM (complete main) \nFormat settings, Endianness : Big \nCodec ID : A_AC3 \nDuration : 1h 30mn \nBit rate mode : Constant \nBit rate : 384 Kbps \nChannel(s) : 6 channels \nChannel positions : Front: L C R, Side: L R, LFE \nSampling rate : 48.0 KHz \nBit depth : 16 bits \nCompression mode : Lossy \nStream size : 247 MiB (8%) \nLanguage : English \nDefault : No \nForced : No \n\nText \nID : 4 \nFormat : UTF-8 \nCodec ID : S_TEXT/UTF8 \nCodec ID/Info : UTF-8 Plain Text \nLanguage : English \nDefault : No \nForced : No \n\nMenu \n00:00:00.000 : en:Chapter 1 \n00:10:27.000 : en:Chapter 2 \n00:18:23.000 : en:Chapter 3 \n00:26:55.000 : en:Chapter 4 \n00:34:24.000 : en:Chapter 5 \n00:43:11.000 : en:Chapter 6 \n00:50:37.000 : en:Chapter 7 \n01:00:57.000 : en:Chapter 8 \n01:09:10.000 : en:Chapter 9 \n01:19:33.000 : en:Chapter 10 \n01:26:20.000 : en:Chapter 11 ","torrent":{"xt":"urn:btih:daf158a23bff95041aa4e794bc04e279b77a12f3","amp;dn":"Axe.Giant.The.Wrath.of.Paul.Bunyan.2013.WEBDL.720p.Cinemania.cc.","amp;tr":["udp%3A%2F%2Ftracker.openbittorrent.com%3A80","udp%3A%2F%2Fopen.demonii.com%3A1337","udp%3A%2F%2Ftracker.coppersurfer.tk%3A6969","udp%3A%2F%2Fexodus.desync.com%3A6969"],"infoHash":"daf158a23bff95041aa4e794bc04e279b77a12f3","infoHashBuffer":{"type":"Buffer","data":[218,241,88,162,59,255,149,4,26,164,231,148,188,4,226,121,183,122,18,243]},"announce":[],"urlList":[]}}